#tb 0: 1/15
0,          0,          0,        1,   230400, 0x26a4728c
0,          1,          1,        1,   230400, 0xa5ff0a21
0,          2,          2,        1,   230400, 0x479d767d
0,          3,          3,        1,   230400, 0xc619cd01
0,          4,          4,        1,   230400, 0x1d377157
0,          5,          5,        1,   230400, 0x1d377157
0,          6,          6,        1,   230400, 0x0941c629
0,          7,          7,        1,   230400, 0xe64b3a93
0,          8,          8,        1,   230400, 0x28493fd7
0,          9,          9,        1,   230400, 0x18c77af2
0,         10,         10,        1,   230400, 0x18c77af2
0,         11,         11,        1,   230400, 0x5a542008
0,         12,         12,        1,   230400, 0x5a542008
0,         13,         13,        1,   230400, 0x3b1a34fd
0,         14,         14,        1,   230400, 0x77d34944
0,         15,         15,        1,   230400, 0x50ac218c
0,         16,         16,        1,   230400, 0xcb999f16
0,         17,         17,        1,   230400, 0xe1ce9f19
0,         18,         18,        1,   230400, 0xb10b4264
0,         19,         19,        1,   230400, 0x61207031
0,         20,         20,        1,   230400, 0x81626d5b
0,         21,         21,        1,   230400, 0x81626d5b
0,         22,         22,        1,   230400, 0x1cb59751
0,         23,         23,        1,   230400, 0x316e6962
0,         24,         24,        1,   230400, 0x4c01b829
0,         25,         25,        1,   230400, 0x276e32bc
0,         26,         26,        1,   230400, 0x276e32bc
0,         27,         27,        1,   230400, 0xe251117a
0,         28,         28,        1,   230400, 0xe251117a
0,         29,         29,        1,   230400, 0x41b7f098
